<?xml version="1.0" standalone="no"?>
<!DOCTYPE svg PUBLIC "-//W3C//DTD SVG 20010904//EN"
 "http://www.w3.org/TR/2001/REC-SVG-20010904/DTD/svg10.dtd">
<svg version="1.0" xmlns="http://www.w3.org/2000/svg"
 width="295.000000pt" height="268.000000pt" viewBox="0 0 295.000000 268.000000"
 preserveAspectRatio="xMidYMid meet">

<g transform="translate(0.000000,268.000000) scale(0.100000,-0.100000)"
fill="#000000" stroke="none">
<path d="M815 2643 c-11 -3 -36 -17 -56 -32 -46 -34 -464 -396 -505 -438 -54
-55 -53 -126 2 -184 l26 -27 -36 -50 c-51 -71 -121 -223 -148 -322 -20 -76
-23 -107 -22 -290 0 -195 1 -209 27 -295 15 -49 52 -139 81 -200 177 -361 527
-617 926 -676 96 -14 414 -7 472 10 70 22 105 92 77 154 -17 38 -49 50 -110
43 -30 -3 -122 -9 -205 -12 -122 -5 -169 -3 -240 11 -219 43 -388 132 -544
286 -195 192 -290 418 -290 689 0 248 71 445 217 601 l46 49 719 0 c784 0 767
1 788 -56 6 -14 10 -91 10 -171 l0 -145 -30 25 c-65 55 -153 38 -190 -37 -11
-23 -20 -50 -20 -59 0 -36 30 -87 62 -107 53 -32 102 -25 157 24 l24 21 -6
-591 c-2 -325 -2 -603 0 -618 3 -15 19 -40 35 -56 25 -25 38 -30 78 -30 62 0
98 26 339 253 211 197 267 260 310 349 62 127 61 116 61 858 0 409 -4 692 -10
718 -37 160 -164 276 -330 302 -65 10 -1674 13 -1715 3z m1754 -228 c44 -22
80 -75 91 -132 5 -30 8 -323 7 -715 -2 -638 -3 -664 -22 -703 -22 -45 -62 -86
-250 -262 l-130 -122 -5 727 -5 727 -26 56 c-32 68 -81 118 -145 150 l-49 24
-557 3 -558 3 0 129 0 129 83 3 c45 2 409 2 810 1 629 -2 731 -5 756 -18z
m-1769 -145 l0 -100 -122 0 -123 1 50 42 c27 23 79 68 115 99 36 31 68 57 73
57 4 1 7 -44 7 -99z"/>
<path d="M904 1636 c-48 -22 -74 -61 -74 -115 1 -55 16 -85 56 -112 37 -24 90
-24 130 0 32 20 64 74 64 110 0 30 -34 94 -58 108 -33 20 -85 24 -118 9z"/>
<path d="M1127 1273 c-25 -7 -47 -55 -47 -105 1 -173 116 -360 267 -431 60
-28 78 -32 153 -32 76 0 93 3 151 32 135 67 213 196 235 389 7 71 -7 129 -37
145 -15 8 -43 5 -112 -12 -131 -33 -372 -33 -500 -1 -49 12 -89 21 -90 21 -1
-1 -10 -3 -20 -6z m483 -294 c30 -15 66 -35 80 -47 l25 -20 -20 -22 c-11 -12
-40 -34 -65 -49 -39 -23 -56 -26 -130 -26 -63 0 -94 5 -118 18 -35 19 -112 85
-112 96 0 12 69 53 112 67 64 21 162 13 228 -17z"/>
</g>
</svg>
